<svg width="303" height="181" viewBox="0 0 303 181" fill="none" xmlns="http://www.w3.org/2000/svg">
<path d="M248.583 180.338C247.805 179.735 247.727 179.355 247.691 176.004C247.634 170.725 247.289 170.932 256.452 170.758C260.461 170.682 263.832 170.76 263.943 170.933C264.054 171.105 261.858 173.44 259.064 176.123L254.854 180.164C254.295 180.701 253.551 181 252.776 181H251.709C250.07 181 249.197 180.815 248.583 180.338ZM250.485 165.498C249.403 165.425 248.476 165.106 247.935 164.62C247.165 163.929 247.085 163.521 247.085 160.299C247.085 157.225 247.187 156.644 247.84 156.018C248.256 155.62 248.809 155.293 249.068 155.291C249.328 155.29 261.15 155.266 275.339 155.24L299.982 155.193C300.726 155.192 301.443 155.466 301.995 155.964L302.069 156.03C302.936 156.811 303 157.113 303 160.426C303 163.418 302.888 164.091 302.294 164.66C301.335 165.579 298.611 165.774 288.241 165.664C278.739 165.564 278.643 165.541 275.818 162.74C275.102 162.03 274.337 161.453 274.118 161.459C273.899 161.465 272.738 162.361 271.539 163.451C270.339 164.54 269.064 165.449 268.705 165.47C266.918 165.574 251.963 165.598 250.485 165.498ZM252.563 149.958C251.702 149.875 250.672 149.472 250.17 149.023C249.342 148.282 249.296 148.016 249.414 144.671C249.527 141.492 249.632 141.037 250.391 140.449C251.623 139.494 255.294 139.32 271.726 139.44C288.759 139.565 287.5 139.183 287.738 144.299C287.863 146.977 287.769 147.695 287.174 148.629C286.474 149.726 286.387 149.753 282.735 149.985C278.843 150.232 255.187 150.21 252.563 149.958ZM109.752 133.784C108.876 132.945 108.808 132.628 108.808 129.407C108.808 126.202 108.88 125.865 109.735 125.045L109.792 124.991C110.351 124.455 111.095 124.157 111.868 124.157H120.797C129.357 124.157 131.061 124.244 131.77 124.72C132.549 125.243 132.61 125.564 132.61 129.177C132.61 131.966 132.458 133.269 132.074 133.773C131.57 134.434 130.927 134.482 121.117 134.582L111.92 134.677C111.136 134.685 110.38 134.385 109.814 133.843L109.752 133.784ZM233.994 134.297C232.759 133.819 232.212 131.728 232.485 128.532C232.685 126.189 232.862 125.666 233.689 124.971C234.656 124.159 234.702 124.157 248.068 124.157H260.27C261.044 124.157 261.788 124.455 262.346 124.991L262.438 125.079C263.362 125.964 263.395 126.145 263.271 129.637C263.078 135.052 264.266 134.661 248.082 134.633C240.78 134.622 234.441 134.469 233.994 134.297ZM92.291 118.658C91.1031 118.098 90.5715 116.195 90.7352 113.087C90.8507 110.896 91.0327 110.255 91.7294 109.587C92.5739 108.777 92.7012 108.768 104.568 108.66C111.16 108.599 117.105 108.648 117.78 108.766C119.559 109.08 120.142 110.407 120.142 114.142C120.142 116.61 120.003 117.362 119.42 118.052C118.962 118.594 118.29 118.909 117.58 118.913L105.914 118.98C97.2936 119.029 92.8561 118.925 92.291 118.658ZM207.373 118.404C206.556 117.771 206.458 117.377 206.34 114.239C206.21 110.797 206.217 110.767 207.35 109.681L207.62 109.422C208.179 108.887 208.922 108.588 209.696 108.588H231.784H253.871C254.645 108.588 255.389 108.887 255.947 109.422L256.217 109.681C257.349 110.765 257.357 110.802 257.227 114.195C257.125 116.88 256.952 117.754 256.422 118.261C255.791 118.865 254.207 118.913 232.011 119.005C209.033 119.1 208.246 119.081 207.373 118.404ZM90.2152 103.594C87.9764 103.499 87.5849 103.372 86.8761 102.509C86.1631 101.64 86.0874 101.155 86.2008 98.1896C86.4053 92.8414 85.227 93.2255 101.878 93.0787C109.484 93.0117 116.29 93.0609 117.001 93.1894C119.398 93.6202 119.764 94.3411 119.764 98.6231C119.764 102.235 119.721 102.444 118.851 102.99C118.069 103.481 116.118 103.574 105.344 103.632C98.4181 103.669 91.61 103.652 90.2152 103.594ZM126.492 103.592C125.225 103.358 124.584 101.323 124.728 97.9953C124.845 95.3055 124.989 94.7303 125.725 94.0252C126.277 93.496 127.013 93.2006 127.778 93.2006H167.095C189.375 93.2006 208.029 93.3168 208.549 93.4587C210.026 93.8624 210.411 94.8656 210.471 98.4685C210.522 101.515 210.453 101.86 209.631 102.646L209.604 102.672C209.047 103.206 208.307 103.505 207.536 103.506L167.906 103.602C145.449 103.656 126.813 103.652 126.492 103.592ZM0.82685 102.781C0.0897793 102.123 0 101.674 0 98.647C0 96.7793 0.105604 94.9874 0.234684 94.6651C0.888521 93.0322 0.514208 93.0486 37.2602 93.05C56.3517 93.0507 73.6615 93.1487 75.7264 93.2679C78.9753 93.4553 79.5985 93.5973 80.3545 94.3218C81.1432 95.0776 81.2276 95.4862 81.2224 98.5245C81.2192 100.376 81.0917 102.069 80.939 102.288C80.0989 103.494 79.2712 103.519 40.3324 103.519C1.92959 103.519 1.6478 103.513 0.82685 102.781ZM216.171 102.681C215.451 101.947 215.349 101.433 215.349 98.5379C215.349 95.6183 215.448 95.1271 216.199 94.3312C216.743 93.755 217.496 93.4228 218.288 93.4098L231.422 93.1944C239.327 93.0647 246.41 93.0693 247.163 93.2043C249.728 93.6656 250.107 94.3586 250.107 98.5892C250.107 101.744 250.001 102.413 249.416 102.92C248.796 103.457 247.093 103.519 232.859 103.519H218.165C217.415 103.519 216.696 103.217 216.171 102.681ZM7.35003 87.4241C6.32272 86.4396 6.21563 85.4753 6.80365 82.504C7.24578 80.2698 7.82533 79.5484 9.96732 78.5663C11.4258 77.8975 12.4446 77.8494 26.2575 77.7961C47.6751 77.7134 46.3409 77.6565 47.4318 78.7018C48.2614 79.4969 48.3591 79.8949 48.3591 82.4799C48.3591 85.5767 47.9592 87.068 46.9275 87.8192C46.4176 88.1905 42.2701 88.2922 27.2793 88.3013L9.48427 88.3125C8.70983 88.313 7.96521 88.0139 7.40619 87.478L7.35003 87.4241ZM54.2858 87.2972C53.3293 86.3405 53.2706 86.0823 53.2706 82.8346C53.2706 79.6891 53.3479 79.3179 54.1542 78.5919L54.1823 78.5666C54.7331 78.0707 55.448 77.7963 56.1891 77.7962L146.621 77.7805L236.929 77.7649C237.74 77.7647 238.513 78.1095 239.055 78.7132C239.802 79.5458 239.906 80.0613 239.906 82.928C239.906 86.0553 239.859 86.2392 238.802 87.2525L238.568 87.4769C238.01 88.0121 237.266 88.3109 236.492 88.3109H146.499H56.5422C55.7474 88.3109 54.985 87.9954 54.4226 87.4338L54.2858 87.2972ZM22.8744 71.8226C21.9805 70.9659 21.9127 70.6613 21.9127 67.498C21.9127 64.487 22.0106 63.9877 22.7628 63.1618C23.3042 62.5673 24.0712 62.2284 24.8753 62.2285L124.46 62.2363C214.066 62.2443 225.405 62.3065 226.184 62.7958C227.013 63.3162 227.061 63.5634 227.061 67.3066C227.061 70.9143 226.988 71.3325 226.234 72.005C225.702 72.4804 225.013 72.7432 224.299 72.7432H124.622H25.0406C24.2676 72.7432 23.5244 72.4448 22.966 71.9103L22.8744 71.8226ZM49.6264 56.9251C47.8892 56.5994 47.5002 55.6487 47.5477 51.8443C47.5892 48.5183 47.6505 48.256 48.5663 47.488L48.703 47.3734C49.2441 46.9196 49.928 46.6713 50.6342 46.6721L128.087 46.7638C201.667 46.8511 206.674 46.8961 207.28 47.4771C208.236 48.393 208.485 53.7337 207.644 55.2912C207.306 55.9175 206.702 56.5977 206.303 56.8028C205.6 57.1631 51.5377 57.2834 49.6264 56.9251ZM88.537 41.0818C87.0801 40.4744 86.9139 40.0103 86.8414 36.3486C86.7754 33.0164 87.0333 31.9799 88.0593 31.4537C88.8088 31.0693 135.46 30.9279 136.491 31.307C137.597 31.7139 138.277 33.5441 138.277 36.118C138.277 39.3999 137.85 40.4262 136.213 41.0815C134.321 41.8392 90.3542 41.8395 88.537 41.0818ZM144.816 41.2416C143.184 40.6117 142.861 39.5568 143.132 35.7398C143.281 33.6476 143.579 32.0362 143.87 31.7571C144.254 31.3888 148.435 31.2671 163.409 31.1883C186.241 31.0682 184.074 30.5108 183.909 36.46L183.843 38.8745C183.818 39.7742 183.292 40.5844 182.48 40.973C181.275 41.5498 179.579 41.6041 163.401 41.5837C153.635 41.5718 145.271 41.4175 144.816 41.2416ZM163.401 25.6206C161.935 24.8524 161.701 24.1827 161.701 20.7684C161.701 17.9563 161.821 17.3006 162.484 16.4929C162.979 15.889 163.72 15.5389 164.501 15.5389H172.859C184.663 15.5389 183.991 15.2197 183.991 20.8308C183.991 26.2531 184.435 26.0416 173.078 26.0276C167.354 26.0197 163.886 25.8747 163.401 25.6206ZM179.602 10.5653C176.377 10.3877 175.567 9.53575 175.365 6.11006C175.026 0.366 175.693 -0.15275 183.175 0.0289912C188.16 0.150138 188.224 0.162226 189.125 1.16723C189.917 2.05076 190.036 2.54597 190.035 4.96888C190.034 7.11416 189.86 8.02726 189.279 8.94037C188.078 10.8279 187.162 10.9817 179.602 10.5653Z" fill="black"/>
</svg>
