<svg width="330" height="330" viewBox="0 0 330 330" fill="none" xmlns="http://www.w3.org/2000/svg">
<rect width="329.785" height="329.785" fill="#18191A"/>
<path d="M259.861 253.195C259.101 252.605 259.025 252.235 258.99 248.96C258.934 243.803 258.597 244.005 267.549 243.835C271.466 243.761 274.759 243.837 274.867 244.005C274.976 244.174 272.831 246.456 270.101 249.076L265.137 253.841H262.916C261.314 253.841 260.462 253.661 259.861 253.195ZM261.72 238.696C260.663 238.624 259.756 238.312 259.228 237.838C258.476 237.163 258.398 236.764 258.398 233.617C258.398 230.612 258.498 230.045 259.136 229.433C259.542 229.044 260.082 228.725 260.335 228.723C260.589 228.722 272.139 228.699 286.001 228.673L311.206 228.626L312.116 229.445C312.963 230.208 313.026 230.503 313.026 233.74C313.026 236.663 312.916 237.321 312.336 237.877C311.399 238.775 308.737 238.965 298.607 238.858C289.323 238.76 289.229 238.738 286.47 236.001C285.77 235.307 285.023 234.744 284.809 234.75C284.595 234.755 283.461 235.631 282.289 236.695C281.116 237.76 279.871 238.647 279.52 238.668C277.775 238.77 263.163 238.793 261.72 238.696ZM263.75 223.512C262.909 223.431 261.902 223.038 261.412 222.599C260.603 221.875 260.558 221.615 260.673 218.347C260.783 215.241 260.886 214.797 261.627 214.222C262.832 213.289 266.417 213.119 282.472 213.236C299.113 213.358 297.883 212.985 298.115 217.984C298.237 220.6 298.145 221.302 297.564 222.214C296.881 223.286 296.795 223.312 293.227 223.539C289.425 223.78 266.314 223.759 263.75 223.512ZM124.226 207.71C123.37 206.89 123.304 206.581 123.304 203.433C123.304 200.303 123.374 199.974 124.209 199.172L125.115 198.304H135.016C143.38 198.304 145.044 198.39 145.737 198.855C146.498 199.366 146.557 199.68 146.557 203.209C146.557 205.934 146.409 207.207 146.034 207.699C145.541 208.346 144.913 208.392 135.33 208.49L125.149 208.595L124.226 207.71ZM245.608 208.211C244.402 207.745 243.867 205.701 244.133 202.578C244.329 200.29 244.502 199.779 245.31 199.1C246.255 198.307 246.3 198.304 259.358 198.304H272.457L273.397 199.205C274.3 200.07 274.332 200.247 274.211 203.659C274.023 208.949 275.183 208.568 259.372 208.54C252.238 208.529 246.044 208.38 245.608 208.211ZM107.167 192.932C106.006 192.385 105.487 190.525 105.647 187.489C105.76 185.348 105.937 184.722 106.618 184.069C107.443 183.278 107.567 183.269 119.161 183.163C125.601 183.104 131.41 183.151 132.069 183.267C133.807 183.574 134.377 184.87 134.377 188.519C134.377 190.931 134.241 191.665 133.672 192.34L132.966 193.175L120.476 193.247C112.054 193.295 107.719 193.193 107.167 192.932ZM219.6 192.684C218.802 192.065 218.706 191.68 218.591 188.615C218.464 185.251 218.47 185.222 219.577 184.161L220.692 183.093H243.449H266.206L267.32 184.161C268.425 185.221 268.433 185.256 268.307 188.571C268.206 191.195 268.037 192.048 267.52 192.544C266.904 193.134 265.356 193.181 243.671 193.271C221.222 193.364 220.453 193.345 219.6 192.684ZM105.139 178.214C102.951 178.121 102.569 177.997 101.876 177.153C101.18 176.305 101.106 175.831 101.217 172.934C101.416 167.708 100.265 168.084 116.533 167.94C123.964 167.875 130.613 167.923 131.308 168.048C133.65 168.469 134.008 169.174 134.008 173.357C134.008 176.887 133.965 177.09 133.115 177.624C132.352 178.103 130.445 178.194 119.919 178.251C113.153 178.288 106.501 178.271 105.139 178.214ZM140.58 178.212C139.343 177.983 138.716 175.995 138.857 172.744C138.971 170.116 139.112 169.554 139.831 168.865L140.672 168.059H180.249C202.016 168.059 220.241 168.173 220.748 168.311C222.192 168.706 222.568 169.686 222.626 173.206C222.676 176.183 222.609 176.519 221.806 177.288L220.932 178.125L181.041 178.222C159.101 178.275 140.894 178.271 140.58 178.212ZM17.8078 177.42C17.0877 176.777 17 176.338 17 173.381C17 171.556 17.1032 169.805 17.2293 169.49C17.8681 167.895 17.5024 167.911 53.4026 167.912C72.0546 167.913 88.966 168.009 90.9834 168.125C94.1575 168.308 94.7664 168.447 95.505 169.155C96.2755 169.893 96.358 170.292 96.3529 173.261C96.3498 175.069 96.2252 176.724 96.076 176.938C95.2552 178.116 94.4466 178.141 56.404 178.141C18.8852 178.141 18.6099 178.135 17.8078 177.42ZM228.195 177.322C227.492 176.605 227.392 176.103 227.392 173.274C227.392 170.421 227.489 169.942 228.223 169.164L229.053 168.284L243.095 168.053C250.818 167.927 257.739 167.931 258.474 168.063C260.98 168.514 261.35 169.191 261.35 173.324C261.35 176.407 261.246 177.06 260.675 177.555C260.07 178.08 258.405 178.141 244.499 178.141H228.997L228.195 177.322ZM24.1809 162.416C23.1772 161.454 23.0726 160.512 23.647 157.608C24.079 155.426 24.6452 154.721 26.7379 153.761C28.1628 153.108 29.1582 153.061 42.6531 153.009C63.5778 152.928 62.2743 152.872 63.34 153.894C64.1506 154.67 64.246 155.059 64.246 157.585C64.246 160.611 63.8553 162.068 62.8473 162.802C62.3492 163.164 58.2972 163.264 43.6514 163.273L25.0868 163.284L24.1809 162.416ZM70.0363 162.292C69.1018 161.357 69.0444 161.105 69.0444 157.931C69.0444 154.858 69.12 154.496 69.9077 153.786L70.7711 153.009L160.246 152.993L249.721 152.978L250.553 153.905C251.283 154.718 251.384 155.222 251.384 158.023C251.384 161.078 251.339 161.258 250.306 162.248L249.227 163.282H160.127H71.0281L70.0363 162.292ZM39.3479 147.172C38.4745 146.335 38.4083 146.038 38.4083 142.947C38.4083 140.005 38.504 139.518 39.2388 138.711L40.0693 137.799L138.595 137.806C226.138 137.814 237.217 137.875 237.978 138.353C238.788 138.862 238.835 139.103 238.835 142.76C238.835 146.285 238.763 146.694 238.027 147.351L237.219 148.072H138.753H40.2874L39.3479 147.172ZM65.4842 132.617C63.7869 132.299 63.4069 131.37 63.4532 127.653C63.4938 124.404 63.5537 124.147 64.4485 123.397L65.4005 122.599L142.139 122.689C214.025 122.775 218.916 122.819 219.509 123.386C220.443 124.281 220.686 129.499 219.865 131.021C219.534 131.633 218.945 132.297 218.554 132.498C217.868 132.85 67.3514 132.967 65.4842 132.617ZM103.499 117.138C102.076 116.545 101.913 116.091 101.843 112.513C101.778 109.258 102.03 108.245 103.032 107.731C103.765 107.355 149.342 107.217 150.349 107.588C151.43 107.985 152.094 109.773 152.094 112.288C152.094 115.495 151.677 116.497 150.078 117.138C148.229 117.878 105.274 117.878 103.499 117.138ZM158.483 117.294C156.888 116.679 156.573 115.648 156.838 111.919C156.983 109.875 157.274 108.3 157.559 108.027C157.934 107.668 162.019 107.549 176.648 107.472C198.955 107.354 196.837 106.81 196.676 112.622L196.572 116.413L195.28 117.032C194.103 117.595 192.445 117.648 176.64 117.628C167.098 117.617 158.928 117.466 158.483 117.294ZM176.64 102.032C175.208 101.281 174.979 100.627 174.979 97.2912C174.979 94.5438 175.096 93.9031 175.744 93.114L176.509 92.1819H185.88C197.412 92.1819 196.756 91.87 196.756 97.3522C196.756 102.65 197.19 102.443 186.095 102.43C180.502 102.422 177.113 102.28 176.64 102.032ZM192.468 87.3226C189.317 87.149 188.526 86.3167 188.329 82.9697C187.998 77.3576 188.649 76.8508 195.959 77.0283C200.829 77.1467 200.892 77.1585 201.772 78.1404C202.546 79.0036 202.662 79.4875 202.661 81.8547C202.66 83.9507 202.49 84.8428 201.922 85.735C200.749 87.5791 199.854 87.7294 192.468 87.3226Z" fill="#FF783E"/>
</svg>
